<svg width="28" height="28" viewBox="0 0 28 28" xmlns="http://www.w3.org/2000/svg">
<path d="M9.26 4.13029C9.38463 4.0524 9.52719 4.00787 9.67399 4.00096C9.82079 3.99406 9.9669 4.02501 10.0983 4.09086L18.2394 8.16057L24.6886 4.13029C24.8183 4.0492 24.9674 4.00431 25.1204 4.0003C25.2733 3.99628 25.4246 4.03328 25.5584 4.10745C25.6922 4.18162 25.8037 4.29026 25.8814 4.42209C25.959 4.55392 26 4.70414 26 4.85714V19.4286C26 19.5739 25.963 19.7169 25.8926 19.8441C25.8221 19.9712 25.7204 20.0784 25.5971 20.1554L18.74 24.4411C18.6154 24.519 18.4728 24.5636 18.326 24.5705C18.1792 24.5774 18.0331 24.5464 17.9017 24.4806L9.76057 20.4109L3.31143 24.4411C3.18168 24.5222 3.03259 24.5671 2.87964 24.5711C2.72669 24.5752 2.57545 24.5382 2.44163 24.464C2.3078 24.3898 2.19627 24.2812 2.11861 24.1493C2.04095 24.0175 2 23.8673 2 23.7143V9.14286C2 8.99748 2.03697 8.8545 2.10745 8.72734C2.17792 8.60019 2.27958 8.49305 2.40286 8.416L9.26 4.13029ZM10.5714 18.8989L17.4286 22.3274V9.67257L10.5714 6.244V18.8989ZM8.85714 6.40343L3.71429 9.61772V22.1663L8.85714 18.9537V6.40514V6.40343ZM19.1429 9.61772V22.1663L24.2857 18.9537V6.40514L19.1429 9.61772Z" fill="black"/>
</svg>
