<svg width="28" height="28" viewBox="0 0 28 28" xmlns="http://www.w3.org/2000/svg">
<path d="M14 2C15.5913 2 17.1174 2.63214 18.2426 3.75736C19.3679 4.88258 20 6.4087 20 8C20 9.5913 19.3679 11.1174 18.2426 12.2426C17.1174 13.3679 15.5913 14 14 14C12.4087 14 10.8826 13.3679 9.75736 12.2426C8.63214 11.1174 8 9.5913 8 8C8 6.4087 8.63214 4.88258 9.75736 3.75736C10.8826 2.63214 12.4087 2 14 2ZM14 5C13.2044 5 12.4413 5.31607 11.8787 5.87868C11.3161 6.44129 11 7.20435 11 8C11 8.79565 11.3161 9.55871 11.8787 10.1213C12.4413 10.6839 13.2044 11 14 11C14.7956 11 15.5587 10.6839 16.1213 10.1213C16.6839 9.55871 17 8.79565 17 8C17 7.20435 16.6839 6.44129 16.1213 5.87868C15.5587 5.31607 14.7956 5 14 5ZM14 15.5C18.005 15.5 26 17.495 26 21.5V26H2V21.5C2 17.495 9.995 15.5 14 15.5ZM14 18.35C9.545 18.35 4.85 20.54 4.85 21.5V23.15H23.15V21.5C23.15 20.54 18.455 18.35 14 18.35Z" fill="black"/>
</svg>
