<svg width="28" height="28" viewBox="0 0 28 28" xmlns="http://www.w3.org/2000/svg">
<path d="M10.49 16.7L14 14.57L17.51 16.7L16.58 12.71L19.7 10.01L15.59 9.68L14 5.9L12.41 9.68L8.3 10.01L11.42 12.71L10.49 16.7ZM2 26V4.4C2 3.74 2.2352 3.1748 2.7056 2.7044C3.176 2.234 3.7408 1.9992 4.4 2H23.6C24.26 2 24.8252 2.2352 25.2956 2.7056C25.766 3.176 26.0008 3.7408 26 4.4V18.8C26 19.46 25.7648 20.0252 25.2944 20.4956C24.824 20.966 24.2592 21.2008 23.6 21.2H6.8L2 26ZM5.78 18.8H23.6V4.4H4.4V20.15L5.78 18.8Z" fill="black"/>
</svg>
